<svg width="25" height="24" viewBox="0 0 25 24" fill="none" xmlns="http://www.w3.org/2000/svg">
<path d="M15.7605 22.2503H9.24047C4.33047 22.2503 2.23047 20.1503 2.23047 15.2403V15.1103C2.23047 10.6703 3.98047 8.53027 7.90047 8.16027C8.30047 8.13027 8.68047 8.43027 8.72047 8.84027C8.76047 9.25027 8.46047 9.62027 8.04047 9.66027C4.90047 9.95027 3.73047 11.4303 3.73047 15.1203V15.2503C3.73047 19.3203 5.17047 20.7603 9.24047 20.7603H15.7605C19.8305 20.7603 21.2705 19.3203 21.2705 15.2503V15.1203C21.2705 11.4103 20.0805 9.93027 16.8805 9.66027C16.4705 9.62027 16.1605 9.26027 16.2005 8.85027C16.2405 8.44027 16.5905 8.13027 17.0105 8.17027C20.9905 8.51027 22.7705 10.6603 22.7705 15.1303V15.2603C22.7705 20.1503 20.6705 22.2503 15.7605 22.2503Z" fill="black"/>
<path d="M12.5 15.7501C12.09 15.7501 11.75 15.4101 11.75 15.0001V3.62012C11.75 3.21012 12.09 2.87012 12.5 2.87012C12.91 2.87012 13.25 3.21012 13.25 3.62012V15.0001C13.25 15.4101 12.91 15.7501 12.5 15.7501Z" fill="black"/>
<path d="M15.8499 6.60043C15.6599 6.60043 15.4699 6.53043 15.3199 6.38043L12.4999 3.56043L9.67984 6.38043C9.38984 6.67043 8.90984 6.67043 8.61984 6.38043C8.32984 6.09043 8.32984 5.61043 8.61984 5.32043L11.9699 1.97043C12.2599 1.68043 12.7399 1.68043 13.0299 1.97043L16.3799 5.32043C16.6699 5.61043 16.6699 6.09043 16.3799 6.38043C16.2399 6.53043 16.0399 6.60043 15.8499 6.60043Z" fill="black"/>
</svg>
