<svg width="51" height="61" viewBox="0 0 51 61" fill="none" xmlns="http://www.w3.org/2000/svg">
<path d="M43.7456 6.19787C43.7456 6.19787 46.3769 11.1721 47.0347 13.6592C47.6925 16.1463 46.816 19.6702 46.816 20.4987C46.816 21.3272 48.3503 26.9248 49.2268 28.2709C50.1034 29.6171 49.9948 30.3446 49.9948 30.3446C49.9948 30.3446 47.5823 31.484 46.2667 31.899L44.9478 32.3125C44.9478 32.3125 41.3298 26.303 41.1111 24.5403C40.8924 22.7775 42.4267 18.1158 42.6455 14.4893C42.8642 10.8627 42.6455 4.02165 43.7456 6.19787Z" fill="white" stroke="#263238" stroke-miterlimit="10"/>
<path d="M26.2701 24.3553C26.2701 24.3553 24.2967 24.918 23.5895 25.4823C22.8824 26.0466 16.3816 36.0121 16.0247 36.8561C15.6679 37.7002 16.6825 39.7272 18.2284 41.022C19.7742 42.3169 20.7314 46.203 20.7314 46.203L16.5608 60.1681H45.8695C45.9912 59.495 45.5176 57.238 42.4735 53.2415C41.1579 51.5207 40.2699 50.3705 40.2699 50.3705L40.6876 49.1875C40.6876 49.1875 42.4735 48.0606 43.725 44.6268C44.9765 41.193 45.7511 36.8002 45.9287 34.8338C46.1063 32.8674 46.2263 29.7042 45.2709 27.7953C44.3154 25.8864 41.8174 25.4294 41.8174 25.4294C41.8174 25.4294 33.8941 24.1346 33.1195 23.9667C32.345 23.7988 26.2701 24.3553 26.2701 24.3553Z" fill="#DCC5C6" stroke="#263238" stroke-miterlimit="10"/>
<path d="M23.9008 48.6714L23.1016 60.165H24.381L24.6211 48.6714H23.9008Z" fill="white" stroke="#263238" stroke-miterlimit="10"/>
<path d="M24.9961 48.6714L25.4204 60.165H26.6998L25.7148 48.6714H24.9961Z" fill="white" stroke="#263238" stroke-miterlimit="10"/>
<path d="M38.1406 55.8047C38.17 56.0985 38.1896 56.3908 38.1994 56.6737" stroke="#263238" stroke-miterlimit="10"/>
<path d="M37.0117 50.6642C37.4439 52.0311 37.7785 53.4239 38.0132 54.8332" stroke="#263238" stroke-miterlimit="10"/>
<path d="M35.0226 52.9088C35.0703 54.4633 35.0505 56.5415 34.7266 58.1146" stroke="#263238" stroke-miterlimit="10"/>
<path d="M34.8945 50.6642C34.8945 50.6642 34.9386 51.1305 34.9779 51.8705" stroke="#263238" stroke-miterlimit="10"/>
<path d="M36.082 49.3834C36.9056 48.8642 37.6983 48.3027 38.4567 47.7014" stroke="#263238" stroke-miterlimit="10"/>
<path d="M40.6849 49.1875C40.6849 49.1875 37.7709 49.7704 33.7138 49.3041C29.6568 48.8378 29.1602 48.7336 29.1602 48.7336C29.1602 48.7336 29.3246 49.5621 31.298 49.873C33.2715 50.1839 34.9768 50.7109 40.264 50.3704C40.2672 50.3704 41.0221 49.9523 40.6849 49.1875Z" fill="white" stroke="#263238" stroke-miterlimit="10"/>
<path d="M19.5722 34.3332C19.5722 34.3332 16.3341 35.5208 15.3474 35.9872C14.3607 36.4535 13.9233 38.3701 14.0318 39.5624C14.1403 40.7546 14.8541 45.3651 14.8541 46.1952C14.8541 47.0253 16.0052 47.5942 17.2666 47.8522C18.5279 48.1103 20.9388 48.4227 21.8712 48.0605C22.8037 47.6983 23.5454 46.1019 23.5848 43.8946C23.6243 41.6873 22.7478 37.5976 22.4781 35.9359C22.2084 34.2742 19.5722 34.3332 19.5722 34.3332Z" fill="white" stroke="#263238" stroke-miterlimit="10"/>
<path d="M22.2771 24.8061C22.2771 24.8061 20.0142 22.9407 19.835 22.7231C19.6557 22.5055 19.8942 21.991 19.8942 21.991C19.8942 21.991 21.5634 20.2453 21.5634 19.9065C21.5634 19.5676 21.0865 19.7386 20.7296 20.02C20.7296 20.02 20.9664 19.2878 20.6688 19.2878C20.3711 19.2878 19.7215 19.8008 19.3531 20.0837C19.1093 20.2998 18.9267 20.5702 18.822 20.8702C18.822 20.8702 18.8828 19.5692 18.4651 19.7386C18.0474 19.908 17.929 20.92 17.7497 21.4842C17.5705 22.0485 17.0919 23.6231 17.0919 23.6231L17.4488 24.4112L16.5558 23.7895C16.5558 23.7895 16.4358 21.7687 16.3766 21.3677C16.3174 20.9666 15.7812 21.1423 15.7812 22.2692C15.7851 23.1372 15.8649 24.0034 16.0197 24.8589C16.0789 25.0843 20.011 27.8435 20.3086 28.1233C20.6447 28.3941 21.0032 28.6389 21.3808 28.8554C21.3808 28.8554 20.5471 31.3891 19.8317 33.0788C19.1163 34.7685 18.2234 36.7955 17.9849 38.0903C17.7465 39.3852 19.0571 41.7495 19.2364 42.0308C19.4156 42.3122 20.9631 43.4951 21.6785 42.2003C22.3939 40.9054 23.2276 35.2177 23.5253 32.7975C23.823 30.3772 24.0022 28.574 24.1831 27.8419C24.364 27.1098 24.1239 24.632 23.8854 24.0693C23.647 23.5066 22.56 23.2921 22.2031 22.563C21.8462 21.834 21.3808 21.0288 21.1457 21.7609C20.9105 22.4931 21.2049 22.7744 21.4433 23.2812C21.6818 23.7879 22.2771 24.8061 22.2771 24.8061Z" fill="white" stroke="#263238" stroke-miterlimit="10"/>
<path d="M18.8217 20.8703C18.811 21.2085 18.7714 21.5454 18.7033 21.8775C18.5832 22.4993 18.4648 23.2299 18.4648 23.2299L19.2394 24.1299" stroke="#263238" stroke-miterlimit="10"/>
<path d="M20.7303 20.02C20.7303 20.02 20.3224 20.477 20.1152 20.7164C19.908 20.9558 19.515 21.3273 19.515 21.3273C19.515 21.3273 19.168 22.7885 19.168 22.8553C19.168 22.9221 19.8143 23.5968 19.8143 23.5968" stroke="#263238" stroke-miterlimit="10"/>
<path d="M17.4531 24.4112L18.203 24.9506" stroke="#263238" stroke-miterlimit="10"/>
<path d="M18.2578 25.1574L20.1211 23.603" stroke="#263238" stroke-miterlimit="10"/>
<path d="M21.1641 26.1429C21.1641 26.1429 22.6984 26.816 22.7527 27.7487C22.8069 28.6813 22.3152 28.9922 22.3152 28.9922" stroke="#263238" stroke-miterlimit="10"/>
<path d="M29.6657 23.4522C29.6657 23.4522 26.6283 23.9014 26.2698 24.3522C25.9113 24.803 25.6745 29.7585 25.612 33.368C25.5495 36.9774 26.0889 39.1194 26.0889 39.1194L23.5859 43.9055L24.7782 44.6936C24.7782 44.6936 35.262 34.7841 36.752 32.813C38.2419 30.842 42.59 26.1678 42.59 25.6626C42.59 25.1574 39.7302 24.1983 38.7764 23.9745C37.8225 23.7506 36.2751 23.7491 34.6075 23.5796C32.94 23.4102 29.6657 23.4522 29.6657 23.4522Z" fill="white" stroke="#263238" stroke-miterlimit="10"/>
<path d="M28.652 36.3369L26.0898 39.1085" stroke="#263238" stroke-miterlimit="10"/>
<path d="M26.089 6.65486C26.089 6.65486 23.3854 9.73576 23.3854 10.7835C23.3854 11.8312 23.3854 13.4695 22.971 14.0602C22.5566 14.6509 20.9598 15.3038 21.3068 16.025C21.4118 16.2376 21.5666 16.4248 21.7595 16.5724C21.9524 16.7199 22.1783 16.8241 22.4201 16.8769C22.4201 16.8769 23.4611 20.3495 24.0153 21.2013C24.5695 22.0532 25.8243 22.1837 26.3719 22.0532C26.9195 21.9226 28.2434 21.2013 28.2434 21.2013C28.2434 21.2013 29.9076 24.2807 29.9767 24.7392C30.0458 25.1978 28.3815 34.24 28.3815 35.154C28.3815 36.068 28.6594 36.3338 28.6594 36.3338C28.6594 36.3338 36.0071 26.5704 36.7702 25.6532C37.5333 24.7361 38.1565 24.0817 38.1565 24.0817C38.1565 24.0817 36.4232 21.9195 35.7999 20.351C35.1767 18.7826 34.9678 18.3194 35.3148 17.8639C35.6618 17.4085 36.2143 16.6857 36.2143 16.6857C36.2143 16.6857 30.7397 10.6575 28.9373 8.49532C27.135 6.33309 26.714 5.86987 26.089 6.65486Z" fill="white" stroke="#263238" stroke-miterlimit="10"/>
<path d="M28.2383 21.2013L30.4814 19.7697L28.9471 22.1526L28.2383 21.2013Z" fill="#263238" stroke="#263238" stroke-miterlimit="10"/>
<path d="M25.1637 12.9364L24.9258 13.5208" stroke="#263238" stroke-miterlimit="10" stroke-linecap="round"/>
<path d="M26.496 13.611C26.496 13.611 25.0159 14.0167 24.2578 13.3856" stroke="#263238" stroke-width="2" stroke-miterlimit="10" stroke-linecap="round"/>
<path d="M26.2681 6.45905C26.2023 6.5196 26.1418 6.5851 26.0872 6.65491C26.0872 6.65491 25.5281 7.29378 24.918 8.0881C25.6218 8.70988 27.4341 10.2736 28.0985 10.5861C28.8862 10.9592 26.625 7.0373 26.2681 6.45905Z" fill="#263238"/>
<path d="M33.4375 15.5665C33.4375 15.5665 34.0049 17.0914 34.5607 17.5593C35.1166 18.0271 35.5474 17.5593 36.1066 16.8567C36.6657 16.154 36.2299 15.2789 35.9832 15.2789C35.7365 15.2789 33.4474 14.8126 33.4474 14.8126L33.4375 15.5665Z" fill="#263238" stroke="#263238" stroke-miterlimit="10"/>
<path d="M31.1484 16.0903C31.1484 16.0903 31.4954 17.3339 32.4641 17.0075C33.4327 16.681 33.4343 15.5665 33.4343 15.5665" stroke="#263238" stroke-miterlimit="10"/>
<path d="M24.4961 11.9494C24.4961 11.9494 25.4499 11.1846 26.259 12.0846" stroke="#263238" stroke-width="2" stroke-miterlimit="10" stroke-linecap="round"/>
<path d="M25.355 14.1737C25.355 14.4597 25.2596 14.6913 25.1412 14.6913C25.0228 14.6913 24.9258 14.4597 24.9258 14.1737C24.9258 13.8876 25.0228 13.656 25.1412 13.656C25.2596 13.656 25.355 13.8876 25.355 14.1737Z" fill="#263238"/>
<path d="M22.9727 17.8437C22.9727 17.8437 23.6864 18.338 24.4527 17.2126" stroke="#263238" stroke-miterlimit="10" stroke-linecap="round"/>
<path d="M24.8398 6.06578C24.8398 6.06578 27.3346 10.2628 28.5137 11.8312C29.6928 13.3996 35.1674 16.6142 35.5851 16.9422C36.0028 17.2702 37.0405 17.0728 37.3185 16.8769C37.5964 16.6811 40.443 15.7624 41.3393 13.9934C42.2356 12.2245 43.1483 7.83473 42.0317 5.67251C40.915 3.51028 37.6655 2.33046 35.7233 2.1346C34.5879 2.01267 33.4387 2.07895 32.3273 2.33046C32.3273 2.33046 31.4261 2.00402 30.247 2.59316C29.0679 3.18229 28.7916 3.51028 28.7916 3.51028C28.7916 3.51028 26.2952 4.23154 24.8398 6.06578Z" fill="white" stroke="#263238" stroke-miterlimit="10"/>
<path d="M33.3672 2.13456C33.3672 2.13456 34.7535 1.15215 35.8636 0.891006C36.9736 0.62986 40.0916 1.28428 41.2 1.87341C42.3084 2.46255 44.9446 7.77096 45.4297 9.47463C45.9149 11.1783 44.8048 14.0618 44.7358 15.7639C44.6667 17.466 46.9542 23.2346 47.2321 23.9543C47.5101 24.674 47.5775 24.6755 45.9165 25.5926C44.2556 26.5098 39.9535 27.4937 38.9125 27.8186C37.8715 28.1435 36.7648 25.7217 36.0691 23.3636C35.3735 21.0055 35.584 18.3894 36.278 14.9121C36.972 11.4348 37.4555 8.29326 37.1085 5.67247C36.7615 3.05168 34.7535 2.00088 33.3672 2.13456Z" fill="white" stroke="#263238" stroke-miterlimit="10"/>
<path d="M32.3281 2.33041C33.6412 3.24352 34.5727 4.56416 34.9594 6.06107C35.5826 8.54818 36.4148 9.79173 37.038 10.2581" stroke="#263238" stroke-miterlimit="10"/>
<path d="M28.793 3.51028C28.793 3.51028 33.664 5.0041 35.6736 8.14874" stroke="#263238" stroke-miterlimit="10"/>
<path d="M6.94599 24.5577C8.36923 24.0721 8.54495 21.1176 7.33848 17.9587C6.13201 14.7998 4.00022 12.6327 2.57699 13.1184C1.15376 13.604 0.978036 16.5585 2.1845 19.7174C3.39097 22.8763 5.52276 25.0434 6.94599 24.5577Z" fill="white" stroke="#263238" stroke-miterlimit="10"/>
<path d="M7.24678 24.5023C8.67001 24.0166 8.84573 21.0621 7.63926 17.9032C6.43279 14.7443 4.301 12.5773 2.87777 13.0629C1.45454 13.5486 1.27882 16.503 2.48529 19.6619C3.69175 22.8208 5.82355 24.9879 7.24678 24.5023Z" fill="white" stroke="#263238" stroke-miterlimit="10"/>
<path d="M5.03786 21.0319L5.01172 21.5495" stroke="#263238" stroke-miterlimit="10" stroke-linecap="round"/>
<path d="M5.37352 14.6028L5.07422 20.3744" stroke="#263238" stroke-miterlimit="10" stroke-linecap="round"/>
<path d="M4.58215 16.1696L4.36719 19.8458" stroke="#263238" stroke-miterlimit="10" stroke-linecap="round"/>
<path d="M7.5662 23.2097L7.53516 23.5237" stroke="#263238" stroke-miterlimit="10" stroke-linecap="round"/>
<path d="M7.82152 20.5951L7.63281 22.5039" stroke="#263238" stroke-miterlimit="10" stroke-linecap="round"/>
<path d="M6.94922 24.5574L8.92593 29.7383L10.1511 29.0591L7.45409 24.3771L6.94922 24.5574Z" fill="#263238" stroke="#263238" stroke-miterlimit="10"/>
<path d="M21.0849 41.0173C21.0849 41.0173 15.9014 38.2582 14.6516 36.7955C14.0324 36.0945 13.4554 35.3612 12.9232 34.599C12.9232 34.599 12.5071 31.4451 12.3279 30.4891C12.1486 29.5331 10.8379 27.6165 10.5995 26.9403C10.4004 26.3537 10.2611 25.7504 10.1834 25.1387C10.1242 24.6879 9.46806 24.8014 9.1704 25.4201C8.87274 26.0387 9.34965 27.1097 9.40886 27.5046C9.46082 27.7922 9.54064 28.0748 9.64731 28.3486C9.64731 28.3486 7.85972 26.7724 7.67389 26.6589C7.48806 26.5455 7.07857 26.547 6.96017 27.1657C6.84176 27.7844 7.37623 28.574 7.37623 28.574C7.37623 28.574 6.48326 29.1958 6.48326 29.5875C6.49782 29.9275 6.53739 30.2662 6.60166 30.601C6.60166 30.601 6.1856 31.9518 6.2448 32.2907C6.304 32.6296 6.84012 33.6415 6.84012 33.6415C6.84012 33.6415 6.18231 33.6975 6.00635 33.5296C5.83038 33.3617 5.41103 32.4586 5.17257 32.684C4.93412 32.9094 5.05417 33.755 5.17257 34.0363C5.29098 34.3177 5.83038 34.3177 6.1856 34.711C6.54082 35.1042 8.1508 35.1617 8.44846 35.3327C8.74612 35.5037 12.0236 38.5971 13.5728 40.0054C15.1219 41.4137 19.5884 45.5812 19.8861 46.0879C20.1838 46.5947 21.0192 47.2133 21.0192 47.2133L21.0849 41.0173Z" fill="white" stroke="#263238" stroke-miterlimit="10"/>
<path d="M9.64844 28.3533L11.1976 29.6482" stroke="#263238" stroke-miterlimit="10"/>
<path d="M7.38281 28.5787L8.33663 30.043" stroke="#263238" stroke-miterlimit="10"/>
<path d="M6.60938 30.6057L7.38394 31.9565" stroke="#263238" stroke-miterlimit="10"/>
<path d="M38.9003 31.4498L29.3621 42.149C29.3621 42.149 28.5875 41.8117 28.2899 42.0931C28.1254 42.242 27.9847 42.4127 27.8722 42.5998L26.1454 42.149C26.1454 42.149 22.2134 40.4593 21.4388 40.4593C20.6642 40.4593 20.4258 40.5728 20.4258 40.8542C20.4258 41.1355 20.4866 51.7213 20.4866 52.4534C20.4866 53.1856 20.5458 53.8617 21.5589 54.199C22.5719 54.5364 25.7886 55.0431 26.6815 54.9872C27.5745 54.9312 28.2899 54.4244 28.5283 53.9737C28.7668 53.5229 28.7668 51.6094 28.7668 51.6094C28.7668 51.6094 31.2681 51.8907 33.0557 50.4824C34.8433 49.0741 40.5613 41.1355 41.3951 40.0676C42.2288 38.9997 44.0756 36.2375 44.6117 35.224" fill="#DCC5C6"/>
<path d="M38.9003 31.4498L29.3621 42.149C29.3621 42.149 28.5875 41.8117 28.2899 42.0931C28.1254 42.242 27.9847 42.4127 27.8722 42.5998L26.1454 42.149C26.1454 42.149 22.2134 40.4593 21.4388 40.4593C20.6642 40.4593 20.4258 40.5728 20.4258 40.8542C20.4258 41.1355 20.4866 51.7213 20.4866 52.4534C20.4866 53.1856 20.5458 53.8617 21.5589 54.199C22.5719 54.5364 25.7886 55.0431 26.6815 54.9872C27.5745 54.9312 28.2899 54.4244 28.5283 53.9737C28.7668 53.5229 28.7668 51.6094 28.7668 51.6094C28.7668 51.6094 31.2681 51.8907 33.0557 50.4824C34.8433 49.0741 40.5613 41.1355 41.3951 40.0676C42.2288 38.9997 44.0756 36.2375 44.6117 35.224" stroke="#263238" stroke-miterlimit="10"/>
<path d="M26.8433 42.3293L26.1493 42.149C26.1493 42.149 22.2173 40.4593 21.4427 40.4593C20.6681 40.4593 20.4297 40.5728 20.4297 40.8541C20.4297 41.1355 20.4905 51.7212 20.4905 52.4534C20.4905 53.1855 20.5497 53.8617 21.5628 54.199C22.5758 54.5363 25.7925 55.0431 26.6854 54.9871C27.5784 54.9312 28.2938 54.4244 28.5322 53.9736C28.7707 53.5228 28.7707 51.6093 28.7707 51.6093C28.7707 51.6093 28.1129 44.6268 26.9239 42.4304L26.8433 42.3293Z" fill="white" stroke="#263238" stroke-miterlimit="10"/>
<path d="M41.9375 39.3898C41.9375 39.3898 43.7843 38.095 44.4997 36.8561" stroke="#263238" stroke-miterlimit="10"/>
<path d="M30.4531 45.6931C30.5106 45.8222 30.5647 45.9543 30.6172 46.0911" stroke="#263238" stroke-miterlimit="10"/>
<path d="M27.8789 42.5998C28.8489 43.2635 29.6381 44.1357 30.1812 45.1444" stroke="#263238" stroke-miterlimit="10"/>
<path d="M29.5469 42.4303C29.5469 42.4303 30.7375 43.1625 31.0944 44.12" stroke="#263238" stroke-miterlimit="10"/>
<path d="M28.7057 16.7929C28.6482 16.7929 28.6251 16.7821 28.6202 16.7665C29.028 16.5738 29.3421 16.3546 29.4638 16.1447C29.8388 15.4965 29.028 15.1421 28.3423 15.3193C28.3423 15.3193 26.4922 15.6769 25.5565 16.0313C24.6207 16.3857 24.4744 17.1458 25.7209 17.323C25.7966 17.3339 25.8738 17.3417 25.9561 17.3463H25.9281H25.9906C26.2657 17.3549 26.541 17.3388 26.8129 17.2981C26.9461 17.2981 27.0168 17.3137 26.9379 17.351C26.6862 17.4707 26.1386 17.7878 26.8967 17.8686C27.6549 17.9495 29.4194 17.2717 29.5872 17.0727C29.7549 16.8738 28.959 16.7929 28.7057 16.7929Z" fill="#DCC5C6"/>
<path opacity="0.6" d="M28.7057 16.7929C28.6482 16.7929 28.6251 16.7821 28.6202 16.7665C29.028 16.5738 29.3421 16.3546 29.4638 16.1447C29.8388 15.4965 29.028 15.1421 28.3423 15.3193C28.3423 15.3193 26.4922 15.6769 25.5565 16.0313C24.6207 16.3857 24.4744 17.1458 25.7209 17.323C25.7966 17.3339 25.8738 17.3417 25.9561 17.3463H25.9281H25.9906C26.2657 17.3549 26.541 17.3388 26.8129 17.2981C26.9461 17.2981 27.0168 17.3137 26.9379 17.351C26.6862 17.4707 26.1386 17.7878 26.8967 17.8686C27.6549 17.9495 29.4194 17.2717 29.5872 17.0727C29.7549 16.8738 28.959 16.7929 28.7057 16.7929Z" fill="white"/>
</svg>
